HIERARCHY
ROOT joint_Root
{
	OFFSET 0.0 0.0 0.0
	CHANNELS 6 Xposition Yposition Zposition Zrotation Xrotation Yrotation 
	JOINT Hips
	{
		OFFSET -17.1583 93.1646 452.98
		CHANNELS 6 Xposition Yposition Zposition Zrotation Xrotation Yrotation 
		JOINT Spine
		{
			OFFSET 15.7357 0.0 0.0
			CHANNELS 6 Xposition Yposition Zposition Zrotation Xrotation Yrotation 
			JOINT Chest
			{
				OFFSET 8.98455 -0.406207 0.0
				CHANNELS 6 Xposition Yposition Zposition Zrotation Xrotation Yrotation 
				JOINT Neck
				{
					OFFSET 16.3773 0.0 0.0
					CHANNELS 6 Xposition Yposition Zposition Zrotation Xrotation Yrotation 
					JOINT Head
					{
						OFFSET 6.45672 0.0 0.0
						CHANNELS 6 Xposition Yposition Zposition Zrotation Xrotation Yrotation 
						End Site
						{
							OFFSET 0.0 0.0 0.0
						}
					}
				}
				JOINT Shoulder_L
				{
					OFFSET 12.9942 -0.242716 4.98039
					CHANNELS 6 Xposition Yposition Zposition Zrotation Xrotation Yrotation 
					JOINT UpperArm_L
					{
						OFFSET 5.34809 0.0 0.0
						CHANNELS 6 Xposition Yposition Zposition Zrotation Xrotation Yrotation 
						JOINT LowerArm_L
						{
							OFFSET 24.3286 1.87007e-05 0.0
							CHANNELS 6 Xposition Yposition Zposition Zrotation Xrotation Yrotation 
							JOINT Hand_L
							{
								OFFSET 22.2916 0.0 0.0
								CHANNELS 6 Xposition Yposition Zposition Zrotation Xrotation Yrotation 
								End Site
								{
									OFFSET 0.0 0.0 0.0
								}
							}
						}
					}
				}
				JOINT Shoulder_R
				{
					OFFSET 12.9945 -0.242716 -4.98039
					CHANNELS 6 Xposition Yposition Zposition Zrotation Xrotation Yrotation 
					JOINT UpperArm_R
					{
						OFFSET -5.34813 0.0 0.0
						CHANNELS 6 Xposition Yposition Zposition Zrotation Xrotation Yrotation 
						JOINT LowerArm_R
						{
							OFFSET -24.3289 0.000322201 0.0
							CHANNELS 6 Xposition Yposition Zposition Zrotation Xrotation Yrotation 
							JOINT Hand_R
							{
								OFFSET -22.2915 -0.000108084 0.0
								CHANNELS 6 Xposition Yposition Zposition Zrotation Xrotation Yrotation 
								End Site
								{
									OFFSET 0.0 0.0 0.0
								}
							}
						}
					}
				}
			}
		}
		JOINT UpperLeg_L
		{
			OFFSET -2.19248 -6.46944 0.0
			CHANNELS 6 Xposition Yposition Zposition Zrotation Xrotation Yrotation 
			JOINT LowerLeg_L
			{
				OFFSET 39.0811 0.0 -1.23785e-05
				CHANNELS 6 Xposition Yposition Zposition Zrotation Xrotation Yrotation 
				JOINT Foot_L
				{
					OFFSET 40.9854 0.0 -1.26872e-05
					CHANNELS 6 Xposition Yposition Zposition Zrotation Xrotation Yrotation 
					JOINT Toes_L
					{
						OFFSET 11.7543 0.0 0.0
						CHANNELS 6 Xposition Yposition Zposition Zrotation Xrotation Yrotation 
						End Site
						{
							OFFSET 0.0 0.0 0.0
						}
					}
				}
			}
		}
		JOINT UpperLeg_R
		{
			OFFSET -2.19251 6.46944 0.0
			CHANNELS 6 Xposition Yposition Zposition Zrotation Xrotation Yrotation 
			JOINT LowerLeg_R
			{
				OFFSET -39.0811 -0.00228153 -0.0401928
				CHANNELS 6 Xposition Yposition Zposition Zrotation Xrotation Yrotation 
				JOINT Foot_R
				{
					OFFSET -40.9854 0.0 0.0
					CHANNELS 6 Xposition Yposition Zposition Zrotation Xrotation Yrotation 
					JOINT Toes_R
					{
						OFFSET -11.7543 0.0 0.0
						CHANNELS 6 Xposition Yposition Zposition Zrotation Xrotation Yrotation 
						End Site
						{
							OFFSET 0.0 0.0 0.0
						}
					}
				}
			}
		}
	}
}
MOTION
Frames:	4
Frame Time:	0.0333333
0.000000 0.000000 0.000000 0.000000 0.000000 -0.000000 -3.932350 92.801300 0.567143 88.171900 2.305750 0.023951 15.735700 0.000005 -0.000001 65.605500 87.597500 -64.534000 8.984550 -0.406207 -0.000000 -3.370600 -2.087660 2.082370 16.377300 -0.000001 -0.000001 4.060620 1.627190 -2.325650 6.456720 -0.000001 -0.000000 -0.057826 0.861491 0.174529 12.994200 -0.242716 4.980390 -92.663500 7.747200 -70.960700 5.348090 -0.000007 -0.000001 -72.432400 11.829700 1.482190 24.328600 0.000019 0.000005 11.689700 25.515100 -25.656400 22.291600 -0.000001 0.000005 0.616313 4.919820 8.979960 12.994500 -0.242716 -4.980390 88.349400 5.157360 -72.225700 -5.348130 -0.000001 -0.000004 -70.833800 25.831700 -3.754620 -24.328900 0.000322 -0.000009 1.536620 5.181390 -16.554300 -22.291500 -0.000108 -0.000004 2.224320 5.233310 1.869960 -2.192480 -6.469440 -0.000000 -174.852000 1.877730 -2.297480 39.081100 -0.000007 -0.000012 0.160261 -0.498979 17.806200 40.985400 -0.000006 -0.000013 0.567526 12.096700 -71.853900 11.754300 -0.000000 0.000003 0.000149 0.165084 -9.881200 -2.192510 6.469440 -0.000001 -174.325000 9.515230 -177.488000 -39.081100 -0.002282 -0.040193 0.022013 -0.101299 10.445400 -40.985400 0.000008 0.000006 1.278190 3.085050 -68.543900 -11.754300 -0.000006 -0.000006 -0.008380 0.258774 -6.063210
0.000000 0.000000 0.000000 0.000000 0.000000 -0.000000 -3.917310 92.819000 0.440997 88.126400 2.142220 0.046737 15.735700 0.000005 -0.000001 65.626700 87.573500 -64.508300 8.984550 -0.406207 -0.000000 -3.325090 -2.109920 2.176220 16.377300 -0.000001 -0.000001 3.984570 1.616530 -2.355570 6.456720 -0.000001 -0.000000 -0.201889 0.904105 0.166305 12.994200 -0.242716 4.980390 -92.673700 7.739650 -70.875700 5.348090 -0.000007 -0.000001 -72.171900 9.856080 1.390740 24.328600 0.000019 0.000005 11.963400 25.697300 -26.042500 22.291600 -0.000001 0.000005 0.832966 4.909800 9.181730 12.994500 -0.242716 -4.980390 88.333600 5.185540 -72.157100 -5.348130 -0.000001 -0.000004 -70.718100 25.774700 -3.821980 -24.328900 0.000322 -0.000009 1.548970 5.195930 -16.635900 -22.291500 -0.000108 -0.000004 2.228600 5.234030 1.851180 -2.192480 -6.469440 -0.000000 -174.824000 1.781690 -2.333740 39.081100 -0.000007 -0.000012 0.159783 -0.497456 17.807300 40.985400 -0.000006 -0.000013 0.555953 12.042700 -71.781700 11.754300 -0.000000 0.000003 0.000270 0.162947 -9.967990 -2.192510 6.469440 -0.000001 -174.296000 9.430060 -177.552000 -39.081100 -0.002282 -0.040193 0.021784 -0.100121 10.439000 -40.985400 0.000008 0.000006 1.224310 3.146400 -68.417300 -11.754300 -0.000006 -0.000006 -0.008278 0.257951 -6.096820
0.000000 0.000000 0.000000 0.000000 0.000000 -0.000000 -3.899960 92.833400 0.320981 88.078400 1.971660 0.080256 15.735700 0.000005 -0.000001 65.707700 87.557500 -64.542500 8.984550 -0.406207 -0.000000 -3.291920 -2.121100 2.270270 16.377300 -0.000001 -0.000001 3.937790 1.606040 -2.350750 6.456720 -0.000001 -0.000000 -0.299771 0.907240 0.130537 12.994200 -0.242716 4.980390 -92.698400 7.777060 -70.797000 5.348090 -0.000007 -0.000001 -71.808000 7.198490 1.334580 24.328600 0.000019 0.000005 12.343500 25.880100 -26.626300 22.291600 -0.000001 0.000005 1.130800 4.897610 9.425160 12.994500 -0.242716 -4.980390 88.333200 5.180120 -72.136100 -5.348130 -0.000001 -0.000004 -70.678200 25.736700 -3.843810 -24.328900 0.000322 -0.000009 1.532560 5.116280 -16.710900 -22.291500 -0.000108 -0.000004 2.157010 5.231600 1.914150 -2.192480 -6.469440 -0.000000 -174.803000 1.710110 -2.384790 39.081100 -0.000007 -0.000012 0.160694 -0.498917 17.853300 40.985400 -0.000006 -0.000013 0.540660 11.934800 -71.736400 11.754300 -0.000000 0.000003 0.000279 0.162791 -9.974340 -2.192510 6.469440 -0.000001 -174.242000 9.263620 -177.594000 -39.081100 -0.002282 -0.040193 0.022131 -0.102249 10.414600 -40.985400 0.000008 0.000006 1.283100 3.111480 -68.322800 -11.754300 -0.000006 -0.000006 -0.008415 0.259055 -6.051730
0.000000 0.000000 0.000000 0.000000 0.000000 -0.000000 -3.891000 92.837000 0.188098 88.026100 1.791350 0.189152 15.735700 0.000005 -0.000001 66.272000 87.519200 -65.066900 8.984550 -0.406207 -0.000000 -3.201450 -2.110930 2.351940 16.377300 -0.000001 -0.000001 3.899470 1.575300 -2.326580 6.456720 -0.000001 -0.000000 -0.416824 0.863782 0.108896 12.994200 -0.242716 4.980390 -92.742500 7.884040 -70.749500 5.348090 -0.000007 -0.000001 -71.281900 3.334580 1.432430 24.328600 0.000019 0.000005 13.194700 26.011400 -28.128900 22.291600 -0.000001 0.000005 1.290850 4.865030 10.066900 12.994500 -0.242716 -4.980390 88.339300 5.150040 -72.100300 -5.348130 -0.000001 -0.000004 -70.676000 25.659200 -3.869410 -24.328900 0.000322 -0.000009 1.519610 5.059910 -16.751400 -22.291500 -0.000108 -0.000004 2.133460 5.232370 1.894230 -2.192480 -6.469440 -0.000000 -174.775000 1.661780 -2.404100 39.081100 -0.000007 -0.000012 0.162891 -0.501761 17.985700 40.985400 -0.000006 -0.000013 0.531454 11.828600 -71.705700 11.754300 -0.000000 0.000003 0.000436 0.159932 -10.090400 -2.192510 6.469440 -0.000001 -174.191000 9.106400 -177.619000 -39.081100 -0.002282 -0.040193 0.023889 -0.110745 10.512600 -40.985400 0.000008 0.000006 1.439550 3.129870 -68.326700 -11.754300 -0.000006 -0.000006 -0.008604 0.260564 -5.990070
